<?xml version="1.0" standalone="no"?>
<!DOCTYPE svg PUBLIC "-//W3C//DTD SVG 20010904//EN"
 "http://www.w3.org/TR/2001/REC-SVG-20010904/DTD/svg10.dtd">
<svg version="1.0" xmlns="http://www.w3.org/2000/svg"
 width="510.000000pt" height="510.000000pt" viewBox="0 0 510.000000 510.000000"
 preserveAspectRatio="xMidYMid meet">
<metadata>
Created by potrace 1.11, written by Peter Selinger 2001-2013
</metadata>
<g transform="translate(0.000000,510.000000) scale(0.100000,-0.100000)"
fill="#000000" stroke="none">
<path d="M0 2550 l0 -2550 1795 0 c987 0 1795 3 1795 8 0 4 -9 18 -19 31 -13
17 -25 22 -40 18 -11 -3 -19 -1 -15 4 3 5 -4 9 -15 9 -13 0 -23 8 -27 24 -6
27 -44 44 -44 20 0 -16 -16 -19 -25 -4 -3 5 -13 6 -22 3 -13 -5 -15 -2 -10 19
6 24 2 29 -41 49 -48 23 -82 51 -82 67 0 6 -7 23 -15 38 -8 16 -15 24 -15 18
0 -6 -6 -11 -12 -11 -7 0 -19 -2 -27 -4 -10 -3 -17 9 -23 33 -8 29 -14 36 -32
34 -12 -1 -28 -6 -35 -10 -9 -6 -11 1 -6 33 4 31 3 41 -7 39 -8 -2 -12 4 -10
14 6 37 -16 16 -29 -27 -7 -25 -17 -45 -21 -45 -4 0 -8 -11 -8 -24 0 -20 -4
-24 -25 -21 -21 2 -23 0 -13 -12 9 -11 9 -16 0 -22 -7 -4 -10 -14 -7 -22 2 -8
1 -20 -4 -28 -8 -12 -13 -12 -35 3 -30 19 -26 42 4 26 25 -13 32 16 12 47 -13
21 -12 25 9 43 21 18 21 20 5 18 -15 -2 -19 5 -23 35 -2 23 0 36 6 33 9 -6 24
40 20 60 -1 5 -1 11 0 14 1 3 4 39 7 80 4 58 11 86 34 126 l29 52 -37 15 c-20
9 -77 33 -127 55 -129 56 -260 102 -505 176 -118 36 -251 79 -296 95 -44 16
-112 34 -150 40 -38 5 -78 12 -89 15 -11 2 -40 9 -65 15 -25 5 -72 20 -105 31
-33 12 -76 25 -96 29 -36 8 -90 45 -272 185 -56 43 -121 87 -143 96 -23 10
-51 32 -63 48 -12 17 -45 47 -74 68 -75 54 -188 166 -264 262 -35 46 -75 93
-86 106 -28 30 -110 173 -112 195 0 9 -4 22 -9 29 -14 23 -19 158 -7 178 11
17 11 16 6 -6 l-6 -25 23 26 c13 15 40 33 61 40 20 7 37 16 37 19 0 9 51 32
57 26 3 -3 42 9 87 26 44 17 86 30 91 30 6 -1 37 -5 69 -10 48 -7 56 -7 42 3
-14 11 -14 13 -2 18 9 4 18 2 21 -3 4 -6 15 -10 25 -10 16 0 18 -4 11 -23 -5
-12 -15 -20 -23 -18 -7 2 -33 5 -57 7 -24 3 -47 7 -51 9 -4 3 -10 -1 -13 -9
-3 -9 -16 -13 -31 -12 -14 2 -26 -2 -26 -8 0 -8 -3 -7 -8 1 -5 8 -11 8 -23 -1
-15 -11 -15 -14 3 -36 20 -24 20 -24 14 -2 -6 16 -3 22 8 22 15 0 20 -16 17
-50 -2 -13 -1 -13 9 0 10 13 11 13 7 0 -2 -8 -8 -15 -14 -15 -5 0 -18 -8 -27
-18 -17 -17 -19 -17 -37 -1 -20 18 -26 29 -10 20 15 -10 20 33 5 45 -11 9 -14
8 -14 -2 -1 -10 -4 -8 -11 3 -5 10 -18 18 -27 18 -20 0 -46 -36 -37 -50 8 -13
-4 -50 -16 -50 -5 0 -9 7 -9 17 0 9 -3 14 -6 10 -10 -10 7 -47 21 -47 10 0 13
-9 10 -30 -2 -16 1 -30 6 -30 5 0 9 9 9 20 0 20 1 20 25 4 14 -9 28 -14 32
-10 3 3 1 6 -5 6 -7 0 -12 5 -12 11 0 5 4 7 10 4 11 -7 4 14 -17 55 -16 30
-16 40 -2 40 5 0 7 -4 4 -10 -8 -13 73 -70 91 -63 8 3 14 9 14 15 0 5 -5 6
-10 3 -6 -3 -10 -4 -10 0 0 3 11 10 25 15 14 5 25 16 25 25 0 8 5 15 10 15 7
0 7 -7 -1 -21 -8 -16 -8 -24 2 -33 9 -8 10 -8 5 1 -4 7 -1 21 6 32 9 15 16 17
31 10 11 -6 16 -17 13 -25 -3 -9 -1 -12 4 -9 6 4 9 14 8 23 -2 11 3 17 14 16
10 -1 15 3 12 8 -4 6 3 8 17 3 17 -4 20 -3 10 3 -19 14 4 25 26 14 30 -16 59
-7 93 26 23 24 30 37 24 50 -4 9 -8 25 -9 35 -2 13 1 15 11 6 16 -13 19 -23 4
-14 -16 10 -12 -11 5 -25 12 -10 15 -10 15 4 0 9 8 16 20 16 11 0 19 5 18 12
-2 6 7 17 20 23 13 7 23 16 23 21 0 10 28 28 44 29 6 0 15 -6 22 -15 9 -12 10
-9 6 14 -4 22 -2 27 8 24 8 -3 13 -12 11 -21 -1 -8 2 -18 8 -22 5 -3 10 -2 10
3 0 5 7 9 15 9 8 0 15 -3 15 -7 0 -4 14 -5 30 -2 26 4 36 13 28 26 -2 3 7 16
20 29 17 18 20 27 11 32 -8 5 -10 4 -5 -3 5 -8 2 -10 -8 -6 -9 3 -13 10 -10
16 3 5 12 7 20 4 20 -8 31 23 13 36 -12 8 -11 9 1 5 15 -4 56 50 45 61 -3 3 9
11 27 17 27 9 35 9 45 -3 17 -20 41 0 45 36 2 17 13 32 33 42 17 8 33 19 36
24 4 4 9 3 13 -2 4 -6 14 -8 24 -5 15 6 15 5 -1 -11 -10 -10 -16 -23 -14 -29
5 -17 -46 -56 -82 -63 -18 -4 -31 -13 -31 -21 0 -9 6 -13 14 -10 8 3 13 0 12
-6 -3 -24 -29 -77 -35 -73 -14 9 -4 -171 12 -217 9 -26 17 -54 17 -61 0 -7 18
-41 40 -75 22 -34 46 -76 54 -94 7 -18 28 -48 45 -67 16 -19 35 -41 41 -48 6
-7 8 -18 4 -25 -4 -6 -4 -9 1 -5 4 4 20 -1 34 -11 14 -10 29 -19 34 -19 38 -2
71 -20 101 -54 20 -22 36 -36 36 -31 0 6 -7 16 -15 23 -14 11 -11 15 16 32 24
15 34 16 45 7 11 -9 14 -8 14 2 0 11 2 11 10 -1 5 -8 10 -11 10 -6 0 5 6 4 13
-2 10 -8 64 -8 147 2 14 2 40 4 58 4 21 1 32 7 32 17 0 8 6 15 14 15 7 0 20 8
27 17 12 15 12 16 -6 9 -11 -4 -40 -10 -65 -12 -25 -3 -57 -7 -72 -9 -17 -3
-28 1 -32 10 -3 8 -12 15 -21 15 -9 0 -26 10 -38 21 l-22 22 30 -7 c48 -12 50
-12 50 4 0 20 17 31 30 21 20 -16 74 -10 89 10 9 13 19 17 31 13 13 -5 16 -4
11 4 -4 7 -1 12 8 12 9 0 16 -5 16 -10 0 -19 39 9 54 39 11 20 14 50 11 104
-3 54 -1 77 8 80 18 7 24 -49 14 -140 -3 -31 -1 -53 4 -53 5 0 8 -18 5 -40
l-5 -40 24 17 c12 10 21 20 19 22 -2 2 3 12 12 22 18 20 22 135 5 166 -17 35
-28 101 -18 118 12 23 1 31 -19 14 -16 -13 -17 -12 -12 9 4 15 2 22 -8 22 -8
0 -17 14 -21 31 -4 24 -8 28 -14 16 -11 -20 -46 -11 -54 14 -3 10 -40 50 -81
88 -48 43 -71 71 -62 74 7 3 3 4 -9 4 -34 -2 -122 43 -116 59 3 9 -2 14 -12
14 -10 0 -13 -5 -9 -12 5 -8 0 -9 -17 -4 -13 3 -50 9 -81 12 -32 4 -55 11 -52
16 3 4 9 6 14 3 5 -3 11 -1 14 4 4 5 -4 8 -17 7 -13 -2 -32 3 -42 10 -17 13
-17 14 1 20 10 4 30 16 43 26 13 10 31 18 40 17 9 0 1 -7 -16 -15 -18 -8 -33
-20 -33 -27 0 -8 3 -7 10 3 5 8 12 11 16 8 4 -4 16 -1 28 7 11 8 33 15 49 15
37 0 34 32 -3 35 -14 1 -34 5 -45 9 -14 6 -16 5 -7 -2 9 -6 3 -9 -20 -9 -27
-1 -29 1 -13 7 15 6 16 9 4 9 -9 1 -24 -8 -34 -19 -10 -11 -29 -20 -42 -20
-13 0 -34 -5 -46 -11 -12 -7 -19 -8 -15 -4 4 5 3 14 -3 21 -12 15 5 29 22 18
8 -4 7 -9 -2 -16 -12 -8 -12 -9 0 -6 8 2 15 12 17 23 4 25 24 36 57 29 15 -3
27 -1 27 4 0 6 9 8 20 5 11 -3 26 -1 33 4 17 13 65 15 72 3 3 -6 1 -10 -5 -10
-7 0 -6 -5 2 -14 11 -12 14 -12 21 0 12 22 157 5 157 -18 0 -6 6 -5 15 2 8 7
15 8 15 3 0 -5 24 -15 53 -23 28 -7 59 -17 67 -21 22 -13 134 -39 124 -30 -5
5 -26 14 -47 21 -66 21 -34 21 39 0 68 -20 144 -26 157 -13 15 14 -16 32 -46
27 -18 -2 -25 -1 -17 3 8 3 20 12 25 18 14 17 45 26 45 14 0 -7 9 -9 22 -6 12
4 41 3 64 0 34 -4 44 -10 46 -27 3 -18 10 -21 53 -23 28 -1 41 1 30 4 -37 9
-41 24 -5 17 33 -7 34 -6 20 11 -9 12 -10 16 -2 11 8 -5 11 -3 10 6 -2 7 4 12
12 10 12 -3 13 -1 3 9 -10 10 -16 10 -25 1 -17 -17 -31 -15 -25 2 3 8 1 17 -6
20 -9 3 -9 5 0 5 6 1 14 -3 17 -8 3 -4 21 -7 40 -4 28 3 38 -1 53 -22 10 -14
30 -40 45 -58 15 -18 28 -35 28 -39 0 -9 -49 9 -68 24 -9 8 -16 8 -24 0 -9 -9
-8 -12 3 -12 7 0 41 -13 73 -30 33 -16 63 -27 68 -24 4 3 8 -2 8 -11 0 -11 -5
-15 -15 -11 -8 3 -15 1 -15 -4 0 -6 5 -10 10 -10 6 0 10 -9 10 -20 0 -11 5
-20 10 -20 6 0 10 9 10 20 0 24 37 42 62 29 17 -9 36 6 24 18 -3 4 -6 1 -6 -5
0 -7 -8 -5 -20 5 -20 17 -19 17 2 40 12 13 27 22 32 20 6 -2 15 5 21 16 5 11
17 22 25 25 9 3 7 -2 -5 -12 -19 -16 -19 -17 10 -14 26 3 31 -1 36 -27 4 -16
7 -22 8 -13 1 15 5 16 26 6 13 -6 22 -16 19 -22 -3 -6 3 -2 13 10 10 11 32 27
50 36 30 15 33 15 53 -7 15 -16 20 -30 15 -44 -7 -24 16 -29 34 -7 7 8 22 11
39 8 l27 -5 -32 35 c-36 37 -40 48 -20 48 7 0 18 9 25 21 8 12 22 20 35 19 36
-3 49 -1 43 9 -4 5 10 5 31 0 23 -5 42 -4 49 2 8 6 22 5 40 -3 16 -6 36 -12
44 -13 37 -2 79 -18 96 -36 9 -10 23 -19 31 -19 7 0 19 -11 25 -25 6 -14 17
-24 24 -21 7 3 20 -2 31 -9 28 -22 63 -19 63 4 0 11 -8 22 -18 25 -32 10 -21
52 26 96 23 22 46 40 52 40 15 0 35 43 21 48 -15 5 -14 41 2 68 6 12 33 52 58
90 25 38 53 83 62 101 9 17 22 37 29 45 7 7 29 42 47 78 19 36 46 81 61 100
15 19 40 55 55 80 15 25 32 50 39 55 6 6 26 29 45 53 18 23 36 40 41 37 4 -3
11 3 14 12 4 11 10 13 17 6 6 -6 -4 -33 -30 -79 -66 -117 -57 -124 23 -16 42
56 76 105 76 108 0 10 88 114 119 140 17 14 31 31 31 38 0 7 16 27 35 46 19
18 37 46 40 61 4 17 19 36 35 46 16 9 30 26 32 37 2 12 13 25 26 31 l22 10 0
442 0 443 -2550 0 -2550 0 0 -2550z m2555 680 c-8 -13 -45 -13 -65 0 -11 7 -3
10 28 10 26 0 41 -4 37 -10z m-401 -37 c9 4 16 2 16 -3 0 -6 -7 -10 -15 -10
-7 0 -18 -6 -22 -14 -8 -13 -93 -61 -93 -51 0 2 14 12 31 20 25 13 28 19 18
31 -9 11 -8 14 4 14 8 0 18 8 21 17 6 14 9 15 16 4 4 -8 15 -11 24 -8z m308
-51 c20 -8 13 -21 -20 -40 -16 -9 -28 -10 -42 -2 -51 27 4 65 62 42z m153 -50
c-3 -3 -11 0 -18 7 -9 10 -8 11 6 5 10 -3 15 -9 12 -12z m30 -2 c3 -5 1 -10
-4 -10 -6 0 -11 5 -11 10 0 6 2 10 4 10 3 0 8 -4 11 -10z m-470 -10 c3 -6 -4
-10 -17 -10 -18 0 -20 2 -8 10 19 12 18 12 25 0z m418 -9 c4 0 12 -1 17 -1 6
0 5 -6 -2 -14 -11 -13 -14 -13 -24 -1 -6 8 -13 12 -16 10 -3 -3 -11 2 -18 10
-11 14 -10 15 11 7 13 -5 27 -10 32 -11z m-272 -28 c-12 -20 -14 -14 -5 12 4
9 9 14 11 11 3 -2 0 -13 -6 -23z m206 6 c2 -16 -1 -18 -12 -9 -12 10 -13 7 -6
-17 5 -18 4 -32 -3 -39 -15 -14 -36 -6 -36 13 0 10 4 13 13 7 7 -5 6 -2 -3 6
-8 8 -16 23 -18 34 -3 14 1 18 16 14 11 -3 26 -2 33 3 8 5 14 9 14 9 1 0 1 -9
2 -21z m-152 -9 c-8 -13 1 -13 27 1 16 8 19 8 13 -1 -5 -9 -1 -10 14 -5 16 5
20 3 15 -9 -3 -8 -12 -17 -20 -20 -8 -3 -13 -2 -10 3 3 5 -1 11 -9 15 -8 3
-15 0 -15 -6 0 -7 -5 -6 -15 2 -17 14 -20 30 -4 30 5 0 7 -4 4 -10z m190 0 c3
-5 -1 -10 -9 -10 -9 0 -16 5 -16 10 0 6 4 10 9 10 6 0 13 -4 16 -10z m70 0
c-3 -5 2 -10 11 -10 16 0 16 -1 -2 -15 -25 -19 -31 -19 -38 2 -4 9 -1 20 6 25
18 11 30 10 23 -2z m109 1 c3 -4 17 -6 30 -4 16 3 32 -1 43 -13 17 -17 17 -18
-2 -10 -11 4 -38 9 -59 12 -44 4 -75 24 -39 24 12 0 24 -4 27 -9z m-139 -61
c-9 -15 4 -12 21 5 31 31 58 2 29 -31 -16 -18 -64 4 -71 32 -5 19 -9 22 -20
13 -8 -6 -11 -15 -8 -20 3 -5 -2 -9 -11 -9 -12 0 -14 4 -5 19 7 14 6 21 -3 25
-6 3 -2 3 10 1 12 -3 24 -1 28 5 5 8 12 4 22 -9 8 -12 11 -26 8 -31z m525 11
c0 -5 -9 -7 -20 -4 -11 3 -20 7 -20 9 0 2 9 4 20 4 11 0 20 -4 20 -9z m-1310
-11 c0 -5 -5 -10 -11 -10 -5 0 -7 5 -4 10 3 6 8 10 11 10 2 0 4 -4 4 -10z
m1350 -25 c16 -19 30 -19 30 -1 0 10 7 12 23 8 30 -7 40 -25 19 -35 -12 -5 -8
-6 11 -4 15 3 27 3 27 2 0 -1 -12 -12 -27 -26 -20 -18 -25 -20 -20 -6 6 15 3
16 -13 7 -25 -14 -41 -13 -37 3 1 6 -5 11 -13 9 -8 -2 -12 0 -8 4 5 4 -1 13
-12 21 -11 8 -20 18 -20 24 0 14 26 11 40 -6z m-1608 -35 c5 -31 -10 -52 -40
-57 -36 -5 -34 34 4 71 23 23 31 20 36 -14z m255 8 c-3 -8 -6 -5 -6 6 -1 11 2
17 5 13 3 -3 4 -12 1 -19z m108 -83 c-65 -16 -85 -25 -85 -36 0 -5 -9 -9 -21
-9 -13 0 -18 -4 -13 -12 5 -7 2 -9 -9 -5 -9 3 -18 0 -21 -9 -3 -9 -10 -12 -16
-9 -5 3 -10 0 -10 -8 0 -7 -11 -24 -25 -37 -23 -22 -25 -22 -31 -5 -18 45 153
144 246 143 32 0 31 -1 -15 -13z m-459 -22 c-10 -10 -19 5 -10 18 6 11 8 11
12 0 2 -7 1 -15 -2 -18z m244 -17 c0 -3 -4 -8 -10 -11 -5 -3 -10 -1 -10 4 0 6
5 11 10 11 6 0 10 -2 10 -4z m-260 -32 c0 -2 -7 -4 -15 -4 -8 0 -15 4 -15 10
0 5 7 7 15 4 8 -4 15 -8 15 -10z m676 -3 c6 -1 21 -10 34 -21 13 -11 29 -20
35 -20 7 0 26 -7 41 -15 36 -18 16 -19 -56 -1 -64 16 -90 25 -107 39 -18 13
-6 27 20 23 12 -3 27 -5 33 -5z m-203 -21 c-3 -12 0 -20 7 -20 10 0 10 -3 1
-14 -7 -8 -22 -12 -34 -9 -16 3 -18 2 -8 -5 11 -8 9 -11 -10 -17 -13 -4 -33
-15 -43 -24 -11 -9 -16 -10 -12 -3 12 21 -8 13 -22 -8 -7 -12 -10 -26 -6 -32
4 -6 3 -8 -2 -5 -6 3 -16 -9 -24 -26 -19 -43 -25 -14 -10 45 8 29 27 57 56 86
25 23 48 41 52 39 4 -3 16 -1 27 4 30 12 34 11 28 -11z m-478 -50 c-3 -4 -18
-10 -35 -12 -22 -3 -27 -1 -20 7 5 7 8 14 5 17 -3 2 9 3 25 0 16 -2 28 -8 25
-12z m600 10 c-3 -5 -12 -10 -18 -10 -7 0 -6 4 3 10 19 12 23 12 15 0z m35
-10 c-8 -6 -13 -10 -10 -11 47 -9 64 -8 71 3 7 11 9 11 9 0 0 -7 5 -10 10 -7
6 3 10 2 10 -3 0 -5 -22 -10 -49 -11 -38 -1 -50 3 -55 16 -6 16 13 38 23 27 3
-3 -1 -9 -9 -14z m-377 -8 c10 -10 14 -22 10 -26 -4 -4 3 -9 14 -12 18 -5 20
-10 12 -31 -11 -30 -12 -86 -1 -79 5 3 8 -25 8 -62 -1 -73 -6 -64 90 -166 31
-33 56 -48 100 -62 66 -19 205 -84 182 -84 -8 0 -42 13 -74 30 -63 32 -116 42
-81 16 17 -13 16 -14 -3 -19 -13 -3 -18 -1 -13 6 4 6 0 8 -10 4 -19 -7 -30 16
-14 32 8 8 8 11 -1 11 -6 0 -16 -9 -22 -20 -8 -16 -7 -22 10 -32 11 -7 20 -17
20 -21 0 -16 -93 59 -146 118 -47 51 -60 76 -55 107 0 4 -7 9 -17 12 -26 9
-53 86 -59 170 -4 56 -3 76 6 76 7 0 19 7 27 15 9 8 12 15 7 15 -5 0 -14 -5
-21 -12 -13 -13 -15 -8 -6 16 8 21 17 20 37 -2z m-333 -22 c0 -5 -5 -10 -11
-10 -5 0 -7 5 -4 10 3 6 8 10 11 10 2 0 4 -4 4 -10z m89 -6 c3 -2 -5 -14 -17
-26 -18 -19 -24 -20 -34 -9 -10 11 -10 12 0 7 6 -4 12 -2 12 4 0 6 4 9 9 5 5
-3 12 -1 16 5 3 5 1 11 -4 11 -26 3 -30 4 -36 11 -4 4 5 5 21 2 16 -3 31 -7
33 -10z m-66 -19 c-7 -21 -13 -19 -13 6 0 11 4 18 10 14 5 -3 7 -12 3 -20z
m464 3 c-3 -8 -6 -5 -6 6 -1 11 2 17 5 13 3 -3 4 -12 1 -19z m389 -6 c-4 -3
-14 2 -24 12 -16 18 -16 18 6 6 13 -6 21 -14 18 -18z m-210 3 c-36 -19 -47
-19 -22 0 11 8 27 15 35 15 9 0 3 -7 -13 -15z m307 -69 c10 -12 14 -22 8 -24
-7 -2 -5 -12 5 -27 8 -13 16 -35 18 -49 1 -15 11 -32 21 -40 17 -12 13 -42 -4
-31 -5 2 -11 -14 -14 -36 -3 -23 -11 -47 -17 -53 -9 -8 -11 -4 -6 19 22 107
-1 201 -68 274 l-31 34 35 -23 c19 -13 43 -33 53 -44z m-506 12 c-3 -7 -5 -2
-5 12 0 14 2 19 5 13 2 -7 2 -19 0 -25z m133 29 c0 -2 -10 -12 -21 -23 -22
-19 -22 -19 -8 4 12 19 29 30 29 19z m-840 -39 c0 -5 -4 -8 -10 -8 -5 0 -10
10 -10 23 0 18 2 19 10 7 5 -8 10 -18 10 -22z m-60 -9 c0 -5 -4 -9 -10 -9 -5
0 -10 7 -10 16 0 8 5 12 10 9 6 -3 10 -10 10 -16z m30 11 c0 -5 -4 -10 -10
-10 -5 0 -10 5 -10 10 0 6 5 10 10 10 6 0 10 -4 10 -10z m720 -16 c0 -3 -7
-12 -15 -21 -20 -19 -32 -10 -14 11 14 15 29 21 29 10z m88 -23 c-8 -12 -18
-18 -21 -14 -4 3 0 15 10 25 21 24 29 15 11 -11z m592 19 c0 8 3 10 6 7 4 -4
2 -13 -4 -20 -7 -8 -11 -16 -9 -18 1 -2 -4 2 -10 10 -18 21 -16 36 2 21 12
-10 15 -10 15 0z m-1397 -41 c-3 -10 -10 -22 -16 -26 -6 -4 -8 0 -4 10 4 11 2
14 -9 10 -17 -6 -18 1 -3 28 13 26 39 8 32 -22z m31 18 c-1 -9 2 -14 7 -11 5
3 9 3 9 0 0 -2 3 -11 6 -20 3 -9 1 -16 -6 -16 -6 0 -8 6 -4 13 4 7 3 9 -2 4
-5 -5 -9 -13 -9 -19 0 -6 -8 -12 -17 -14 -10 -1 -18 4 -18 12 0 9 4 13 9 9 13
-7 10 36 -3 54 -8 10 -6 12 9 9 11 -2 19 -11 19 -21z m-214 -52 c-7 -8 -10
-24 -7 -35 6 -24 -8 -27 -17 -4 -7 18 10 54 26 54 7 0 6 -5 -2 -15z m42 -47
c-5 -21 -18 -23 -28 -6 -4 7 -3 8 4 4 8 -5 12 0 12 13 0 12 -5 21 -11 21 -5 0
-7 -4 -4 -10 3 -5 1 -10 -4 -10 -14 0 -14 6 1 29 12 19 12 19 23 -2 6 -12 9
-30 7 -39z m44 49 c4 -4 2 -7 -5 -7 -7 0 -9 -5 -5 -11 4 -8 9 -8 17 0 14 14
27 14 27 1 0 -5 -5 -10 -11 -10 -6 0 -17 -7 -25 -15 -18 -17 -34 -20 -34 -5 0
6 6 10 13 10 8 0 8 3 1 8 -21 14 -23 39 -3 37 10 -1 22 -4 25 -8z m64 3 c0 -5
-4 -10 -10 -10 -5 0 -10 5 -10 10 0 6 5 10 10 10 6 0 10 -4 10 -10z m1427 -22
c-3 -8 -6 -5 -6 6 -1 11 2 17 5 13 3 -3 4 -12 1 -19z m-1944 -3 c-3 -9 -8 -14
-10 -11 -3 3 -2 9 2 15 9 16 15 13 8 -4z m542 5 c4 -6 11 -7 17 -4 6 4 9 1 6
-7 -6 -17 -60 -18 -64 -1 -1 7 0 8 3 2 8 -16 23 -12 17 5 -7 17 11 21 21 5z
m-210 -20 c3 -5 1 -10 -4 -10 -6 0 -11 5 -11 10 0 6 2 10 4 10 3 0 8 -4 11
-10z m-125 -8 c0 -4 -9 -13 -19 -19 -15 -10 -20 -9 -25 2 -5 13 7 23 32 24 6
1 12 -2 12 -7z m1690 -73 c0 -6 -4 -7 -10 -4 -5 3 -10 11 -10 16 0 6 5 7 10 4
6 -3 10 -11 10 -16z m-10 -54 c14 -17 10 -47 -6 -37 -15 9 -28 52 -16 52 5 0
15 -7 22 -15z m-270 -155 c0 -5 -2 -10 -4 -10 -3 0 -8 5 -11 10 -3 6 -1 10 4
10 6 0 11 -4 11 -10z m40 -72 c0 -4 -4 -8 -9 -8 -6 0 -12 4 -15 8 -3 5 1 9 9
9 8 0 15 -4 15 -9z m30 2 c0 -5 -4 -10 -10 -10 -5 0 -10 5 -10 10 0 6 5 10 10
10 6 0 10 -4 10 -10z m770 -1810 c0 -5 -4 -10 -10 -10 -5 0 -10 5 -10 10 0 6
5 10 10 10 6 0 10 -4 10 -10z m-88 -82 c-7 -7 -12 -8 -12 -2 0 14 12 26 19 19
2 -3 -1 -11 -7 -17z m123 3 c3 -5 1 -12 -5 -16 -5 -3 -10 1 -10 9 0 18 6 21
15 7z m-95 -49 c0 -5 -7 -17 -15 -28 -15 -19 -20 -8 -9 20 6 17 24 22 24 8z"/>
<path d="M2470 3046 c0 -2 7 -9 15 -16 13 -11 14 -10 9 4 -5 14 -24 23 -24 12z"/>
<path d="M5005 4090 c-3 -5 -1 -10 4 -10 6 0 11 5 11 10 0 6 -2 10 -4 10 -3 0
-8 -4 -11 -10z"/>
<path d="M5085 3997 c-4 -10 -5 -21 -1 -24 10 -10 18 4 13 24 -4 17 -4 17 -12
0z"/>
<path d="M5060 3941 c-7 -15 -7 -21 0 -21 12 0 25 28 17 36 -3 3 -10 -4 -17
-15z"/>
<path d="M4904 3861 c-16 -15 -28 -33 -26 -39 2 -7 -4 -24 -13 -39 -9 -14 -13
-23 -7 -19 13 8 85 116 80 121 -1 2 -17 -9 -34 -24z"/>
<path d="M5069 3849 c-15 -16 -30 -36 -33 -44 -3 -8 -17 -20 -31 -27 -14 -6
-24 -17 -21 -24 3 -7 -6 -24 -20 -39 -13 -14 -30 -38 -38 -53 -8 -15 -30 -43
-50 -61 -20 -19 -36 -40 -36 -46 0 -6 -14 -27 -31 -48 -17 -21 -30 -40 -28
-42 7 -6 42 28 83 78 21 26 49 50 61 53 13 3 26 15 30 27 3 12 9 17 11 10 7
-15 -39 -86 -83 -132 -41 -42 -113 -147 -113 -164 1 -7 5 -6 13 3 7 9 23 16
36 17 13 1 34 12 47 24 13 12 27 19 31 16 3 -4 1 -7 -5 -7 -6 0 -14 -10 -18
-22 -3 -12 -22 -43 -41 -70 l-36 -49 37 17 c20 10 36 24 36 31 0 7 4 13 10 13
11 0 1 -32 -14 -42 -6 -4 -8 -10 -4 -13 7 -8 48 14 64 34 9 11 13 11 19 1 4
-7 2 -16 -6 -21 -8 -5 -9 -9 -3 -9 26 0 21 -30 -8 -59 -35 -34 -31 -37 19 -19
29 10 36 10 51 -5 14 -14 14 -19 4 -26 -8 -5 -19 -19 -25 -31 -7 -13 -27 -30
-44 -39 -18 -9 -33 -19 -33 -23 0 -12 28 -10 35 2 10 17 48 12 41 -5 -3 -8 -4
-15 -3 -15 1 -1 30 -3 65 -6 l62 -6 0 357 c0 353 0 356 -20 345 -11 -6 -20
-19 -20 -30 0 -16 -7 -19 -35 -18 -19 1 -35 4 -35 7 0 3 25 33 55 66 47 50 55
65 53 91 l-3 32 -26 -29z m-59 -189 c8 -5 11 -12 8 -16 -4 -3 -14 1 -23 10
-18 17 -9 21 15 6z m74 -5 c-7 -16 -24 -21 -24 -6 0 8 7 13 27 20 1 1 0 -6 -3
-14z m-200 -221 c3 -8 2 -13 -3 -9 -5 3 -11 0 -13 -7 -3 -7 -7 -2 -10 10 -7
25 16 31 26 6z m46 -4 c0 -11 -7 -20 -15 -20 -27 0 -18 30 13 39 1 1 2 -8 2
-19z"/>
<path d="M4920 3791 c-16 -30 -12 -36 10 -16 21 19 26 35 10 35 -5 0 -14 -9
-20 -19z"/>
<path d="M4886 3743 c-6 -14 -5 -15 5 -6 7 7 10 15 7 18 -3 3 -9 -2 -12 -12z"/>
<path d="M4867 3713 c-4 -3 -7 -11 -7 -17 0 -6 5 -5 12 2 6 6 9 14 7 17 -3 3
-9 2 -12 -2z"/>
<path d="M4810 3623 c-18 -27 -42 -56 -52 -66 -18 -18 -24 -37 -10 -37 10 0
110 150 99 150 -2 0 -19 -21 -37 -47z"/>
<path d="M4696 3585 c-16 -24 -16 -25 4 -25 15 0 20 7 20 25 0 14 -2 25 -4 25
-2 0 -11 -11 -20 -25z"/>
<path d="M4725 3500 c-3 -5 -1 -10 4 -10 6 0 11 5 11 10 0 6 -2 10 -4 10 -3 0
-8 -4 -11 -10z"/>
<path d="M4680 3132 c-9 -4 -33 -20 -53 -36 -30 -23 -40 -26 -51 -17 -11 10
-20 10 -37 1 -12 -7 -24 -8 -28 -4 -14 20 -60 36 -81 29 -31 -10 -59 -40 -50
-55 4 -7 10 -8 13 -3 7 11 69 4 78 -8 3 -5 19 -10 36 -12 18 -2 38 -9 46 -15
7 -7 28 -9 49 -6 21 4 38 2 42 -4 4 -6 13 -9 20 -6 7 3 16 -2 19 -10 4 -11 19
-16 46 -16 52 0 96 41 78 71 -9 15 -9 24 1 39 10 16 10 20 0 20 -25 -1 -102
-41 -115 -60 -16 -22 -43 -27 -43 -7 0 6 12 23 25 36 14 13 25 34 25 47 0 13
-1 24 -2 23 -2 0 -10 -3 -18 -7z m25 -132 c3 -5 1 -10 -4 -10 -6 0 -11 5 -11
10 0 6 2 10 4 10 3 0 8 -4 11 -10z"/>
<path d="M5080 2995 c0 -8 5 -15 10 -15 6 0 10 7 10 15 0 8 -4 15 -10 15 -5 0
-10 -7 -10 -15z"/>
<path d="M2215 2970 c-4 -6 -13 -9 -21 -6 -7 3 -16 1 -19 -3 -3 -5 1 -11 9
-14 16 -6 54 18 44 28 -3 3 -9 1 -13 -5z"/>
<path d="M2156 2928 c3 -5 11 -8 17 -7 7 1 20 -1 29 -5 9 -4 25 -3 34 2 16 9
15 10 -6 10 -14 0 -37 2 -52 5 -15 2 -25 0 -22 -5z"/>
<path d="M2994 2925 c-12 -9 -14 -14 -6 -15 7 0 20 7 28 15 20 19 4 20 -22 0z"/>
<path d="M4785 2930 c-3 -5 -1 -10 5 -10 6 0 8 -4 5 -10 -3 -5 3 -10 13 -10
11 0 23 -8 26 -17 5 -13 9 -14 19 -4 9 10 8 15 -5 25 -10 7 -18 18 -18 25 0
14 -36 15 -45 1z"/>
<path d="M2838 2903 c7 -3 16 -2 19 1 4 3 -2 6 -13 5 -11 0 -14 -3 -6 -6z"/>
<path d="M2905 2900 c22 -6 63 -14 90 -18 28 -4 65 -16 84 -25 25 -12 30 -13
21 -2 -17 21 -96 43 -170 49 -57 5 -60 4 -25 -4z"/>
<path d="M2600 2896 c0 -7 40 -14 44 -7 3 4 -6 8 -20 9 -13 1 -24 0 -24 -2z"/>
<path d="M2666 2891 c-8 -12 35 -22 48 -12 6 5 22 11 36 14 14 2 2 5 -27 6
-28 0 -54 -3 -57 -8z"/>
<path d="M2050 2875 c0 -8 7 -15 15 -15 8 0 15 4 15 9 0 5 -7 11 -15 15 -9 3
-15 0 -15 -9z"/>
<path d="M3386 2850 c-11 -3 -15 -9 -10 -13 10 -6 42 9 34 16 -3 3 -14 1 -24
-3z"/>
<path d="M3120 2840 c0 -5 5 -10 11 -10 5 0 7 5 4 10 -3 6 -8 10 -11 10 -2 0
-4 -4 -4 -10z"/>
<path d="M3076 2811 c-17 -19 -17 -19 3 -14 12 3 21 12 21 19 0 18 -4 18 -24
-5z"/>
<path d="M3310 2801 c0 -6 4 -13 10 -16 6 -3 7 1 4 9 -7 18 -14 21 -14 7z"/>
<path d="M3490 2800 c0 -5 5 -10 10 -10 6 0 10 5 10 10 0 6 -4 10 -10 10 -5 0
-10 -4 -10 -10z"/>
<path d="M3520 2800 c0 -5 5 -10 10 -10 6 0 10 5 10 10 0 6 -4 10 -10 10 -5 0
-10 -4 -10 -10z"/>
<path d="M3448 2793 c7 -3 16 -2 19 1 4 3 -2 6 -13 5 -11 0 -14 -3 -6 -6z"/>
<path d="M1638 2768 c6 -6 8 -17 5 -24 -8 -21 5 -17 16 5 9 15 7 20 -11 24
-15 4 -18 3 -10 -5z"/>
<path d="M4884 2755 c-9 -22 1 -29 15 -11 8 10 9 16 1 21 -5 3 -13 -1 -16 -10z"/>
<path d="M4937 2749 c6 -21 33 -25 51 -7 8 8 15 8 26 -1 9 -7 21 -11 28 -9 20
7 -20 24 -68 31 -37 4 -41 3 -37 -14z"/>
<path d="M1620 2749 c0 -5 5 -7 10 -4 6 3 10 8 10 11 0 2 -4 4 -10 4 -5 0 -10
-5 -10 -11z"/>
<path d="M3086 2739 c-16 -16 -17 -19 -4 -19 9 0 19 7 22 16 9 24 4 24 -18 3z"/>
<path d="M3224 2688 c-4 -6 -17 -8 -30 -5 -23 4 -24 2 -24 -52 1 -46 3 -53 12
-36 6 11 20 30 30 42 11 12 17 26 14 31 -3 6 2 8 14 5 12 -3 20 0 20 7 0 7 7
10 16 6 8 -3 13 -2 10 3 -8 12 -55 11 -62 -1z m-12 -30 c-9 -9 -15 -9 -24 0
-9 9 -7 12 12 12 19 0 21 -3 12 -12z"/>
<path d="M3107 2661 c-4 -17 -3 -21 5 -13 5 5 8 16 6 23 -3 8 -7 3 -11 -10z"/>
<path d="M1311 2594 c0 -11 3 -14 6 -6 3 7 2 16 -1 19 -3 4 -6 -2 -5 -13z"/>
<path d="M2532 2590 c0 -14 2 -19 5 -12 2 6 2 18 0 25 -3 6 -5 1 -5 -13z"/>
<path d="M3160 2545 c0 -8 5 -15 10 -15 6 0 10 7 10 15 0 8 -4 15 -10 15 -5 0
-10 -7 -10 -15z"/>
<path d="M2600 2442 c0 -5 7 -15 15 -22 8 -7 15 -9 15 -6 0 4 -7 14 -15 22 -8
9 -15 11 -15 6z"/>
<path d="M620 2430 c-8 -5 -11 -12 -7 -17 5 -4 12 -2 16 5 4 7 16 10 27 6 16
-5 16 -4 4 5 -18 13 -21 13 -40 1z"/>
<path d="M1075 2410 c3 -5 8 -10 11 -10 2 0 4 5 4 10 0 6 -5 10 -11 10 -5 0
-7 -4 -4 -10z"/>
<path d="M1365 2399 c-10 -15 3 -25 16 -12 7 7 7 13 1 17 -6 3 -14 1 -17 -5z"/>
<path d="M1423 2387 c2 -27 11 -35 21 -18 3 4 -1 17 -8 27 -13 17 -14 17 -13
-9z"/>
<path d="M595 2374 c-11 -8 -14 -13 -7 -9 7 4 12 0 12 -9 0 -20 30 -48 46 -42
8 3 11 0 7 -10 -4 -11 -9 -12 -19 -3 -8 6 -14 7 -14 3 0 -5 9 -15 19 -21 17
-10 21 -8 31 17 10 24 10 32 -3 45 -9 8 -20 15 -26 15 -5 0 -14 7 -18 15 -8
13 -11 13 -28 -1z"/>
<path d="M542 2368 c-16 -16 -15 -79 3 -101 7 -11 11 -25 9 -32 -3 -7 4 -15
15 -18 24 -6 23 9 -2 35 -10 11 -16 26 -13 34 3 9 1 12 -4 9 -13 -8 -13 1 0
44 11 39 9 46 -8 29z"/>
<path d="M581 2322 c-1 -7 -5 -11 -9 -8 -4 2 -7 -7 -6 -22 2 -42 3 -44 15 -36
6 3 15 1 19 -6 5 -9 9 -9 14 -1 4 6 2 11 -4 11 -6 0 -9 3 -7 8 3 4 -1 21 -8
37 -7 17 -14 24 -14 17z"/>
<path d="M1535 2260 c21 -24 26 -25 19 -6 -3 8 -13 17 -22 21 -13 5 -13 2 3
-15z"/>
<path d="M693 2258 c3 -9 1 -19 -6 -22 -9 -3 -9 -5 0 -5 18 -1 27 19 13 32
-10 9 -12 8 -7 -5z"/>
<path d="M1576 2231 c-3 -4 6 -19 19 -31 14 -13 25 -19 25 -14 0 5 -9 15 -20
22 -12 7 -18 17 -15 22 3 6 4 10 1 10 -3 0 -7 -4 -10 -9z"/>
<path d="M560 2194 c1 -16 39 -59 46 -51 4 4 2 7 -4 7 -7 0 -12 6 -12 14 0 7
-7 19 -15 26 -8 7 -15 9 -15 4z"/>
<path d="M2490 2155 c-14 -16 -10 -18 14 -9 9 3 16 10 16 15 0 14 -16 11 -30
-6z"/>
<path d="M1825 2040 c3 -5 8 -10 11 -10 2 0 4 5 4 10 0 6 -5 10 -11 10 -5 0
-7 -4 -4 -10z"/>
<path d="M1887 2009 c7 -7 15 -10 18 -7 3 3 -2 9 -12 12 -14 6 -15 5 -6 -5z"/>
<path d="M4258 1983 c7 -3 16 -2 19 1 4 3 -2 6 -13 5 -11 0 -14 -3 -6 -6z"/>
<path d="M2022 1971 c-8 -5 2 -15 28 -30 22 -12 40 -21 40 -19 0 13 -59 55
-68 49z"/>
<path d="M4350 1931 c0 -5 7 -12 16 -15 14 -5 15 -4 4 9 -14 17 -20 19 -20 6z"/>
<path d="M2215 1880 c-3 -5 -1 -10 4 -10 6 0 11 5 11 10 0 6 -2 10 -4 10 -3 0
-8 -4 -11 -10z"/>
<path d="M2205 1829 c-4 -6 -5 -12 -2 -15 2 -3 7 2 10 11 7 17 1 20 -8 4z"/>
<path d="M1980 1799 c0 -5 5 -7 10 -4 6 3 10 8 10 11 0 2 -4 4 -10 4 -5 0 -10
-5 -10 -11z"/>
<path d="M4554 1795 c11 -8 25 -15 30 -15 6 0 2 7 -8 15 -11 8 -25 15 -30 15
-6 0 -2 -7 8 -15z"/>
<path d="M2187 1785 c-17 -12 -25 -51 -8 -40 6 3 6 -6 1 -24 -11 -40 -19 -51
-35 -51 -7 0 -16 -12 -20 -27 -4 -19 -9 -23 -14 -14 -6 8 -10 2 -14 -19 -4
-17 -11 -29 -15 -26 -5 3 -9 -1 -9 -9 0 -8 4 -15 9 -15 4 0 8 -11 8 -25 0 -17
4 -23 15 -19 8 4 13 9 11 13 -3 4 -1 13 5 21 7 13 9 13 9 0 0 -13 1 -13 10 0
9 13 11 13 20 0 7 -11 10 -11 10 -2 0 7 4 11 9 8 4 -3 17 2 27 10 16 13 16 15
2 10 -12 -4 -16 0 -13 15 3 12 0 17 -7 13 -8 -5 -9 -1 -4 11 4 11 2 21 -5 26
-7 4 -9 14 -4 25 5 11 7 23 6 27 -1 5 8 11 20 14 16 4 20 12 16 29 -2 13 -1
24 3 24 11 0 8 29 -5 33 -6 3 -19 -1 -28 -8z m-59 -190 c-12 -19 -27 -35 -31
-35 -4 0 3 15 17 33 15 19 26 40 27 48 0 11 2 11 6 1 3 -7 -6 -28 -19 -47z
m52 -9 c0 -3 -4 -8 -10 -11 -5 -3 -10 -1 -10 4 0 6 5 11 10 11 6 0 10 -2 10
-4z"/>
<path d="M1944 1769 c-3 -6 -2 -15 4 -21 6 -6 12 -6 17 3 5 8 4 10 -3 5 -7 -4
-12 -3 -12 3 0 5 8 12 18 14 15 4 15 5 0 6 -9 0 -20 -4 -24 -10z"/>
<path d="M2362 1715 c0 -16 2 -22 5 -12 2 9 2 23 0 30 -3 6 -5 -1 -5 -18z"/>
<path d="M2152 1714 c-7 -8 -8 -14 -3 -14 10 0 25 19 20 25 -2 1 -10 -3 -17
-11z"/>
<path d="M4770 1687 c0 -3 12 -12 26 -22 15 -9 23 -12 20 -6 -7 11 -46 35 -46
28z"/>
<path d="M2224 1604 c-1 -13 3 -24 9 -24 5 0 2 -9 -8 -20 -10 -11 -15 -23 -12
-27 4 -3 7 -1 7 5 0 7 4 12 9 12 6 0 8 -8 6 -18 -3 -15 2 -18 22 -14 14 3 28
13 30 23 7 25 32 25 30 0 0 -10 -7 -17 -13 -14 -8 3 -11 -2 -8 -14 3 -10 -4
-28 -16 -41 -21 -22 -14 -32 7 -11 8 8 11 6 10 -7 -1 -11 -6 -22 -12 -26 -6
-5 -3 -8 7 -8 12 0 16 -6 12 -17 -5 -15 -3 -15 11 2 17 19 17 19 11 -14 -7
-41 -14 -50 -25 -32 -6 10 -10 8 -16 -6 -7 -16 -9 -15 -15 7 -6 18 -8 20 -9 7
-1 -10 -8 -25 -16 -34 -8 -8 -13 -18 -10 -23 9 -15 14 -80 6 -80 -5 0 -12 20
-15 45 -5 32 -12 45 -23 45 -9 0 -14 3 -10 6 7 7 -24 44 -36 44 -5 0 -4 -7 3
-15 9 -11 10 -15 1 -15 -8 0 -5 -11 8 -28 12 -17 16 -33 11 -41 -6 -11 -11 -9
-19 8 -7 12 -9 26 -6 31 3 5 -3 13 -12 19 -12 7 -13 10 -4 11 11 0 11 3 1 15
-7 8 -10 26 -8 39 3 15 1 23 -6 20 -7 -3 -11 -44 -12 -111 0 -71 -4 -108 -12
-111 -11 -3 -9 -8 15 -51 1 -2 14 4 29 14 15 9 23 11 19 4 -6 -9 -3 -11 9 -6
14 5 17 3 12 -8 -8 -22 0 -18 18 10 12 18 13 23 2 19 -7 -3 -16 2 -19 10 -4 9
-2 16 4 16 6 0 7 5 4 10 -4 7 4 10 22 7 24 -3 28 -8 31 -40 l3 -37 27 18 c25
16 26 16 19 -1 -4 -10 -7 -22 -7 -25 0 -4 -4 -1 -9 6 -6 11 -10 10 -15 -3 -5
-15 -1 -16 29 -11 29 6 35 4 35 -10 0 -10 5 -14 14 -11 8 3 17 0 20 -8 2 -7
13 -12 23 -10 10 2 27 4 38 4 17 1 17 3 5 11 -12 7 -12 10 -1 10 7 0 26 -11
43 -25 16 -14 35 -25 43 -25 18 0 39 -27 25 -32 -6 -2 -8 -11 -4 -22 5 -14 9
-15 15 -4 6 10 11 9 22 -6 10 -13 16 -15 21 -8 11 18 24 14 31 -7 7 -22 45
-18 45 5 0 7 5 16 11 19 6 4 9 1 8 -6 -8 -40 48 -87 87 -72 18 7 18 14 0 55
-8 18 -25 60 -37 92 -12 33 -38 79 -57 104 -18 24 -31 46 -29 48 3 3 23 -19
45 -48 23 -29 48 -61 56 -70 9 -10 16 -21 15 -24 0 -3 3 -9 7 -12 4 -4 4 -1 0
6 -5 8 -1 12 11 12 17 1 17 1 1 11 -22 12 -24 33 -3 25 13 -5 14 -2 4 15 -11
22 -5 54 10 45 5 -3 14 1 21 9 10 12 10 15 0 15 -8 0 -10 3 -6 8 8 7 13 8 41
11 8 0 15 8 15 17 0 10 -6 14 -15 10 -22 -8 -18 2 6 15 12 6 19 7 15 1 -3 -5
3 -12 13 -15 19 -5 22 7 8 31 -5 7 -3 12 3 12 6 0 8 5 5 10 -10 16 -25 12 -26
-7 0 -10 -3 -13 -5 -6 -3 7 -12 9 -21 6 -8 -3 -19 0 -25 8 -7 10 -11 11 -14 3
-3 -7 -14 -10 -24 -7 -22 6 -27 39 -7 46 7 2 8 8 3 13 -5 5 -11 4 -13 -3 -3
-7 -14 -13 -26 -13 -18 0 -19 -2 -7 -10 9 -6 10 -10 3 -10 -7 0 -17 8 -22 18
-10 16 -12 16 -25 0 -14 -19 -46 -25 -46 -9 0 5 -16 15 -35 21 -19 6 -40 21
-46 32 -6 11 -13 18 -15 15 -3 -2 11 -28 31 -58 19 -29 35 -58 35 -64 0 -5 -6
-1 -12 10 -22 41 -41 56 -51 43 -6 -9 -7 -8 -3 4 4 14 -56 118 -90 157 -2 2
-13 -4 -24 -14 -22 -20 -28 -4 -6 17 11 12 11 17 1 32 -15 20 -27 20 -38 0
-11 -19 -27 -8 -27 17 0 13 4 18 12 13 7 -4 8 -3 4 5 -6 8 -12 9 -20 2 -7 -6
-16 -8 -19 -4 -4 3 -7 0 -7 -7 0 -9 -5 -8 -19 4 -12 11 -21 13 -25 7 -12 -19
-33 -1 -28 25 2 13 0 24 -4 25 -5 0 -16 2 -24 4 -10 1 -16 -6 -16 -21z m46
-64 c0 -5 -2 -10 -4 -10 -3 0 -8 5 -11 10 -3 6 -1 10 4 10 6 0 11 -4 11 -10z
m86 -19 c12 10 13 5 10 -32 -3 -24 -2 -38 0 -31 9 20 23 14 19 -9 -7 -35 -12
-33 -39 10 -16 25 -23 47 -19 58 4 11 8 13 11 5 3 -10 7 -10 18 -1z m54 -21
c0 -5 -5 -10 -11 -10 -5 0 -7 5 -4 10 3 6 8 10 11 10 2 0 4 -4 4 -10z m20 -61
c0 -5 9 -9 20 -9 11 0 20 7 20 15 0 8 4 15 10 15 9 0 11 -28 10 -108 0 -18 6
-35 13 -38 7 -2 14 -14 14 -27 1 -12 8 -32 14 -44 10 -19 9 -26 -4 -41 -10
-10 -17 -24 -17 -30 0 -7 -4 -12 -10 -12 -14 0 -12 11 5 34 24 32 17 37 -11
11 -31 -29 -54 -32 -54 -9 0 13 -7 15 -35 11 -36 -6 -44 4 -26 32 6 9 6 23 -1
35 -16 30 -16 31 -35 13 -17 -14 -18 -13 -19 16 -1 18 0 25 3 16 3 -12 11 -15
25 -11 18 4 19 7 6 16 -18 14 -31 46 -18 46 6 0 10 -4 10 -10 0 -5 5 -10 11
-10 6 0 8 9 4 20 -5 16 -2 20 14 20 21 0 25 7 23 47 -1 15 3 20 14 16 7 -3 14
-9 14 -14z m-130 -144 c0 0 -8 -1 -18 -1 -10 0 -19 8 -19 17 -2 16 0 17 18 1
10 -9 19 -17 19 -17z m-85 -55 c3 -5 2 -10 -4 -10 -5 0 -13 5 -16 10 -3 6 -2
10 4 10 5 0 13 -4 16 -10z m78 -50 c-10 -11 -19 -20 -21 -20 -1 0 2 9 8 20 6
11 15 20 20 20 6 0 2 -9 -7 -20z m112 -50 c3 -5 1 -10 -4 -10 -6 0 -11 5 -11
10 0 6 2 10 4 10 3 0 8 -4 11 -10z m195 -100 c0 -5 -4 -10 -10 -10 -5 0 -10 5
-10 10 0 6 5 10 10 10 6 0 10 -4 10 -10z"/>
<path d="M2330 1500 c0 -13 18 -22 24 -11 3 5 -1 11 -9 15 -8 3 -15 1 -15 -4z"/>
<path d="M2440 1401 c0 -12 28 -41 41 -41 5 0 9 5 9 10 0 6 -4 10 -9 10 -5 0
-17 7 -25 16 -9 8 -16 11 -16 5z"/>
<path d="M2450 1199 c0 -5 5 -7 10 -4 6 3 10 8 10 11 0 2 -4 4 -10 4 -5 0 -10
-5 -10 -11z"/>
<path d="M2290 1604 c0 -8 5 -12 10 -9 6 3 10 10 10 16 0 5 -4 9 -10 9 -5 0
-10 -7 -10 -16z"/>
<path d="M1885 1570 c-3 -6 1 -7 9 -4 18 7 21 14 7 14 -6 0 -13 -4 -16 -10z"/>
<path d="M1717 1539 c7 -7 15 -10 18 -7 3 3 -2 9 -12 12 -14 6 -15 5 -6 -5z"/>
<path d="M2063 1512 c4 -21 0 -37 -10 -47 -13 -13 -13 -15 2 -15 9 0 13 -4 10
-10 -3 -5 -2 -10 4 -10 5 0 13 -9 16 -21 14 -42 16 -9 4 52 -13 67 -35 110
-26 51z"/>
<path d="M2480 1514 c0 -10 14 -35 30 -54 l30 -35 -27 50 c-33 62 -33 62 -33
39z"/>
<path d="M2274 1505 c-4 -8 -11 -12 -17 -8 -6 3 -7 1 -3 -5 9 -15 36 -4 36 14
0 18 -9 18 -16 -1z"/>
<path d="M1976 1494 c-22 -21 -20 -27 4 -14 11 6 20 15 20 20 0 14 -6 12 -24
-6z"/>
<path d="M1840 1489 c-12 -9 -12 -10 4 -5 11 4 23 1 28 -6 7 -10 9 -10 6 1 -6
20 -20 23 -38 10z"/>
<path d="M2736 1394 c-8 -21 -4 -25 14 -14 11 7 12 12 4 20 -8 8 -13 7 -18 -6z"/>
<path d="M2082 1358 c-8 -18 -11 -19 -11 -5 -1 19 -9 21 -29 8 -10 -6 -10 -10
3 -21 8 -7 15 -18 15 -26 0 -7 5 -16 10 -19 6 -4 9 -1 8 7 -2 7 4 12 12 11 13
-2 15 5 12 32 -2 19 -5 35 -7 35 -1 0 -7 -10 -13 -22z"/>
<path d="M2035 1320 c-3 -5 -1 -10 4 -10 6 0 11 5 11 10 0 6 -2 10 -4 10 -3 0
-8 -4 -11 -10z"/>
<path d="M2070 1280 c-16 -5 -19 -8 -8 -9 9 -1 22 -9 27 -18 9 -15 10 -14 11
10 0 15 -1 27 -2 26 -2 -1 -14 -5 -28 -9z"/>
<path d="M2930 1268 c0 -19 2 -20 10 -8 13 19 13 30 0 30 -5 0 -10 -10 -10
-22z"/>
<path d="M2055 1241 c5 -9 2 -19 -11 -29 -15 -12 -16 -14 -2 -9 12 4 15 2 11
-9 -3 -7 0 -14 6 -14 6 0 11 3 12 8 0 4 2 15 4 24 2 9 -4 23 -13 30 -13 11
-14 11 -7 -1z"/>
<path d="M2231 1164 c0 -11 3 -14 6 -6 3 7 2 16 -1 19 -3 4 -6 -2 -5 -13z"/>
<path d="M2085 1160 c3 -5 8 -10 11 -10 2 0 4 5 4 10 0 6 -5 10 -11 10 -5 0
-7 -4 -4 -10z"/>
<path d="M2443 1055 c0 -8 4 -12 9 -9 5 3 6 10 3 15 -9 13 -12 11 -12 -6z"/>
<path d="M2486 1031 c-3 -4 6 -13 20 -19 23 -11 24 -10 14 8 -11 21 -25 26
-34 11z"/>
<path d="M2800 1015 c-14 -17 -8 -51 15 -80 10 -13 13 -14 10 -4 -3 9 1 21 9
28 12 10 16 8 21 -8 6 -21 35 -30 35 -10 0 5 5 7 11 4 6 -4 5 2 -3 14 -7 12
-18 21 -25 21 -7 0 -13 5 -13 12 0 6 -3 8 -6 5 -4 -3 -16 -1 -28 5 -20 11 -20
11 -1 19 15 6 16 8 4 8 -9 1 -22 -6 -29 -14z"/>
<path d="M3065 870 c-17 -19 -38 -22 -62 -7 -6 4 -14 3 -18 -2 -3 -6 3 -15 14
-20 11 -6 26 -18 35 -26 14 -14 16 -13 22 12 4 15 14 36 22 46 21 24 9 22 -13
-3z"/>
<path d="M3880 873 c0 -10 73 -114 77 -110 6 6 -28 81 -45 100 -15 17 -32 23
-32 10z"/>
<path d="M3710 850 c0 -5 4 -10 9 -10 6 0 13 5 16 10 3 6 -1 10 -9 10 -9 0
-16 -4 -16 -10z"/>
<path d="M3660 842 c0 -4 10 -9 22 -9 18 -2 20 0 8 7 -18 12 -30 13 -30 2z"/>
<path d="M3064 808 c-12 -53 -10 -73 10 -76 14 -3 17 1 12 16 -5 15 -2 22 11
25 17 4 17 5 -1 6 -14 1 -16 4 -8 14 7 8 6 17 -3 30 -12 17 -14 16 -21 -15z"/>
<path d="M3719 823 c-12 -15 -12 -16 3 -10 11 4 17 2 15 -6 -1 -7 4 -11 11 -9
8 1 16 -6 19 -17 3 -11 14 -23 25 -27 15 -4 17 -8 8 -14 -9 -6 -8 -13 6 -29
18 -21 41 -30 29 -11 -3 6 1 7 10 3 12 -4 13 -8 5 -13 -18 -11 -1 -32 20 -25
20 6 36 -10 20 -20 -11 -7 12 -35 29 -35 6 0 8 -6 5 -14 -3 -8 8 -23 26 -36
25 -18 29 -25 18 -32 -10 -7 -8 -8 5 -4 10 3 21 6 23 6 3 0 2 6 -2 13 -5 8 -2
7 10 -2 9 -8 15 -20 12 -27 -3 -9 0 -11 11 -7 12 5 15 2 11 -8 -6 -16 9 -33
34 -37 12 -2 16 4 14 23 -3 22 -1 24 13 13 9 -7 2 3 -15 22 -52 59 -100 132
-128 195 -21 48 -34 64 -58 73 -17 6 -35 9 -40 6 -5 -3 -18 2 -29 12 -23 20
-73 29 -63 11 3 -7 -1 -4 -9 6 -18 21 -21 21 -38 0z m346 -333 c3 -5 1 -10 -4
-10 -6 0 -11 5 -11 10 0 6 2 10 4 10 3 0 8 -4 11 -10z"/>
<path d="M3250 751 c0 -5 5 -13 10 -16 6 -3 10 -2 10 4 0 5 -4 13 -10 16 -5 3
-10 2 -10 -4z"/>
<path d="M3795 640 c4 -6 11 -8 16 -5 14 9 11 15 -7 15 -8 0 -12 -5 -9 -10z"/>
<path d="M3228 623 c7 -3 16 -2 19 1 4 3 -2 6 -13 5 -11 0 -14 -3 -6 -6z"/>
<path d="M3324 609 c-7 -12 15 -31 28 -23 9 6 -1 34 -12 34 -5 0 -12 -5 -16
-11z"/>
<path d="M3695 600 c3 -5 8 -10 11 -10 2 0 4 5 4 10 0 6 -5 10 -11 10 -5 0 -7
-4 -4 -10z"/>
<path d="M3692 528 c5 -15 28 -23 28 -10 0 5 -7 13 -16 16 -10 4 -14 1 -12 -6z"/>
<path d="M4124 523 c2 -5 19 -15 38 -25 192 -95 240 -118 251 -117 12 0 -271
147 -286 148 -5 1 -6 -2 -3 -6z"/>
<path d="M3540 501 c0 -6 4 -13 10 -16 6 -3 7 1 4 9 -7 18 -14 21 -14 7z"/>
<path d="M3450 480 c0 -11 5 -20 11 -20 5 0 7 5 3 11 -3 6 0 15 7 20 11 7 10
9 -3 9 -11 0 -18 -8 -18 -20z"/>
<path d="M3960 491 c0 -5 7 -12 16 -15 22 -9 24 -8 18 9 -7 16 -34 21 -34 6z"/>
<path d="M3629 484 c-1 -5 -1 -13 0 -17 1 -5 -9 -5 -21 -2 -22 7 -22 7 -3 -8
15 -11 23 -12 38 -3 15 8 21 8 24 -1 3 -7 13 -13 23 -13 24 0 16 35 -8 36 -9
1 -25 4 -34 9 -10 4 -19 3 -19 -1z"/>
<path d="M3833 470 c4 -28 107 -95 107 -70 0 6 -9 10 -20 10 -11 0 -20 6 -20
13 0 11 -55 67 -66 67 -2 0 -3 -9 -1 -20z"/>
<path d="M3072 471 c-10 -6 -10 -10 1 -20 12 -9 16 -8 20 3 7 19 -4 27 -21 17z"/>
<path d="M4136 454 c-4 -12 -10 -13 -19 -6 -12 10 -67 5 -67 -7 0 -3 20 -7 44
-9 33 -1 45 2 50 14 4 9 5 19 2 21 -2 2 -6 -4 -10 -13z"/>
<path d="M3520 426 c0 -8 6 -17 13 -19 10 -4 10 -6 0 -6 -7 -1 -13 -5 -13 -11
0 -5 6 -7 14 -4 16 6 30 -53 20 -81 -5 -13 -3 -16 7 -13 13 4 20 52 10 73 -3
5 -5 20 -5 34 -1 26 -46 53 -46 27z"/>
<path d="M4153 417 c2 -6 16 -14 31 -18 22 -6 25 -5 16 6 -14 17 -52 27 -47
12z"/>
<path d="M3689 418 c-1 -2 -3 -13 -4 -25 -2 -16 5 -25 27 -32 16 -6 27 -15 23
-21 -3 -5 1 -10 9 -10 8 0 18 5 21 10 3 6 15 10 26 10 10 0 19 -4 19 -10 0 -5
5 -10 10 -10 6 0 5 8 -2 20 -7 11 -21 20 -31 20 -11 0 -32 11 -49 25 -26 22
-45 31 -49 23z"/>
<path d="M3593 347 c1 -32 4 -36 24 -35 29 3 29 8 -1 43 l-24 28 1 -36z"/>
<path d="M4310 358 c0 -9 -6 -19 -12 -21 -10 -4 -9 -8 2 -16 20 -14 27 -14 33
3 3 8 -1 22 -8 33 -13 16 -14 16 -15 1z"/>
<path d="M4520 326 c92 -50 94 -50 86 -37 -8 12 -114 66 -146 75 -14 4 13 -13
60 -38z"/>
<path d="M3663 324 c-6 -13 -7 -24 -2 -24 5 0 9 -9 9 -20 0 -11 6 -20 14 -20
7 0 16 -9 19 -20 7 -26 29 -26 45 1 11 18 11 20 -5 19 -36 -4 -43 1 -55 44
-13 43 -14 44 -25 20z"/>
<path d="M3870 324 c0 -10 -6 -14 -15 -10 -45 17 26 -50 78 -74 35 -16 36 -18
20 -32 -10 -8 -26 -18 -36 -21 -22 -8 -13 -27 13 -27 10 0 22 -9 25 -21 4 -11
18 -24 31 -29 13 -5 24 -16 24 -25 0 -8 5 -15 10 -15 17 0 11 -25 -10 -42 -22
-19 -33 -10 -29 25 4 30 -7 46 -29 40 -12 -3 -22 3 -29 19 -7 13 -12 17 -12 9
-1 -11 -4 -11 -16 -1 -23 19 -26 9 -8 -27 10 -22 23 -33 41 -35 29 -3 45 -38
18 -38 -8 0 -17 -4 -21 -9 -3 -6 38 -10 101 -10 97 0 108 2 126 22 l20 22 -5
-22 c-5 -22 -3 -23 80 -23 54 0 82 4 78 10 -4 6 -11 8 -16 5 -5 -4 -9 11 -9
33 0 32 -5 41 -25 50 -29 14 -36 56 -7 45 15 -6 15 -5 -1 12 -16 15 -20 16
-28 4 -5 -8 -9 -17 -9 -21 0 -5 -10 -8 -22 -8 -15 0 -29 -11 -40 -30 -21 -36
-73 -69 -99 -63 -13 4 -19 14 -19 34 0 16 -4 29 -10 29 -5 0 -10 18 -10 39 0
22 -5 41 -12 43 -7 3 -8 10 -4 17 6 9 13 7 27 -8 20 -21 38 -27 40 -13 8 47 7
49 -32 49 -39 0 -73 18 -64 33 3 4 -18 13 -45 20 -49 12 -61 22 -40 35 17 10
11 25 -10 25 -12 0 -20 -7 -20 -16z m130 -114 c0 -5 -2 -10 -4 -10 -3 0 -8 5
-11 10 -3 6 -1 10 4 10 6 0 11 -4 11 -10z m230 -130 c0 -5 -5 -10 -11 -10 -5
0 -7 5 -4 10 3 6 8 10 11 10 2 0 4 -4 4 -10z"/>
<path d="M3975 323 c-3 -9 1 -23 11 -32 15 -15 16 -14 9 9 l-6 25 19 -23 c15
-20 20 -21 30 -10 9 12 5 18 -22 31 -32 15 -35 15 -41 0z"/>
<path d="M3726 301 c-4 -5 -2 -12 3 -15 5 -4 12 -2 15 3 4 5 2 12 -3 15 -5 4
-12 2 -15 -3z"/>
<path d="M4100 306 c0 -2 7 -7 16 -10 8 -3 12 -2 9 4 -6 10 -25 14 -25 6z"/>
<path d="M4277 293 c-4 -3 -7 -11 -7 -17 0 -6 5 -5 12 2 6 6 9 14 7 17 -3 3
-9 2 -12 -2z"/>
<path d="M3825 260 c3 -5 10 -10 16 -10 5 0 9 5 9 10 0 6 -7 10 -16 10 -8 0
-12 -4 -9 -10z"/>
<path d="M3285 250 c-3 -5 -1 -10 4 -10 6 0 11 5 11 10 0 6 -2 10 -4 10 -3 0
-8 -4 -11 -10z"/>
<path d="M4292 238 c-17 -17 -15 -58 4 -65 24 -9 48 21 40 51 -7 28 -25 33
-44 14z"/>
<path d="M4731 216 c36 -35 328 -216 350 -216 14 0 19 7 19 30 0 26 -7 33 -57
59 -32 16 -86 41 -120 55 -35 14 -95 42 -135 61 -39 19 -73 35 -76 35 -3 0 6
-11 19 -24z"/>
<path d="M3885 210 c-3 -5 -1 -11 4 -14 11 -7 41 3 41 13 0 10 -39 11 -45 1z"/>
<path d="M4079 124 c-10 -13 -10 -17 2 -25 23 -14 29 -11 29 16 0 29 -12 32
-31 9z"/>
<path d="M4320 124 c0 -8 5 -12 10 -9 6 4 8 11 5 16 -9 14 -15 11 -15 -7z"/>
<path d="M3546 122 c-5 -9 -3 -20 7 -29 10 -10 17 -11 21 -4 4 6 3 11 -3 11
-5 0 -11 8 -13 18 -3 13 -5 14 -12 4z"/>
<path d="M3600 72 c0 -10 19 -29 45 -45 40 -24 56 -27 130 -27 50 0 85 4 85
10 0 6 9 10 20 10 11 0 20 5 20 10 0 17 -67 12 -74 -6 -4 -11 -13 -13 -28 -8
-13 3 -25 11 -26 15 -2 5 -7 7 -12 4 -4 -3 -6 5 -2 17 5 21 4 21 -19 5 -29
-21 -39 -21 -39 -1 0 13 -7 15 -35 10 -28 -6 -35 -4 -35 9 0 8 -7 15 -15 15
-8 0 -15 -8 -15 -18z"/>
</g>
</svg>
